<svg xmlns="http://www.w3.org/2000/svg" version="1.1" xmlns:xlink="http://www.w3.org/1999/xlink" xmlns:svgjs="http://svgjs.dev/svgjs" width="1500" height="303" viewBox="0 0 1500 303"><g transform="matrix(1,0,0,1,-0.9090909090909918,-1.3280976426925406)"><svg viewBox="0 0 396 80" data-background-color="#ffffff" preserveAspectRatio="xMidYMid meet" height="303" width="1500" xmlns="http://www.w3.org/2000/svg" xmlns:xlink="http://www.w3.org/1999/xlink"><g id="tight-bounds" transform="matrix(1,0,0,1,0.2400000000000091,0.3506528429551281)"><svg viewBox="0 0 395.52 79.29869431408976" height="79.29869431408976" width="395.52"><g><svg viewBox="0 0 551.1096541217986 110.49321398601396" height="79.29869431408976" width="395.52"><g><rect width="9.914817976373705" height="110.49321398601396" x="421.47502088055944" y="0" fill="#b19cd9" opacity="1" stroke-width="0" stroke="transparent" fill-opacity="1" class="rect-yte-0" data-fill-palette-color="primary" rx="1%" id="yte-0" data-palette-color="#b19cd9"></rect></g><g transform="matrix(1,0,0,1,0,0.27485874125873266)"><svg viewBox="0 0 395.52 109.94349650349649" height="109.94349650349649" width="395.52"><g id="textblocktransform"><svg viewBox="0 0 395.52 109.94349650349649" height="109.94349650349649" width="395.52" id="textblock"><g><svg viewBox="0 0 395.52 109.94349650349649" height="109.94349650349649" width="395.52"><g transform="matrix(1,0,0,1,0,0)"><svg width="395.52" viewBox="2.08 -33.33 158.88 44.16" height="109.94349650349649" data-palette-color="#b19cd9"><g class="wordmark-text-0" data-fill-palette-color="primary" id="text-0"><path d="M18.4 0.63L18.4 0.63Q15.03 0.63 12.07-0.64 9.1-1.91 6.86-4.13 4.62-6.35 3.35-9.31 2.08-12.26 2.08-15.63L2.08-15.63Q2.08-18.99 3.35-21.94 4.62-24.9 6.86-27.12 9.1-29.34 12.07-30.61 15.03-31.88 18.4-31.88L18.4-31.88Q21.74-31.88 24.65-30.64 27.57-29.41 29.79-27.26L29.79-27.26 28.65-22.47Q27.05-25.03 24.36-26.58 21.67-28.13 18.4-28.13L18.4-28.13Q14.97-28.13 12.2-26.44 9.44-24.76 7.81-21.93 6.18-19.1 6.18-15.63L6.18-15.63Q6.18-12.19 7.81-9.34 9.44-6.49 12.2-4.81 14.97-3.13 18.4-3.13L18.4-3.13Q21.7-3.13 24.38-4.69 27.05-6.25 28.65-8.78L28.65-8.78 29.79-3.99Q27.57-1.88 24.65-0.63 21.74 0.63 18.4 0.63ZM38.33 0L34.58 0 34.58-33.33 38.33-33.33 38.33-17.88Q39.51-19.51 41.25-20.38 42.98-21.25 44.96-21.25L44.96-21.25Q47.19-21.25 49.08-20.16 50.97-19.06 52.15-17 53.33-14.93 53.33-11.98L53.33-11.98 53.33 0 49.58 0 49.58-11.46Q49.58-13.92 48.11-15.82 46.63-17.71 43.96-17.71L43.96-17.71Q41.77-17.71 40.05-16.13 38.33-14.55 38.33-11.56L38.33-11.56 38.33 0ZM68.5 0.28L68.5 0.28Q65.65 0.28 63.29-1.16 60.93-2.6 59.53-5.03 58.12-7.47 58.12-10.42L58.12-10.42Q58.12-13.37 59.53-15.8 60.93-18.23 63.29-19.67 65.65-21.11 68.5-21.11L68.5-21.11Q70.65-21.11 72.55-20.31 74.44-19.51 75.83-18.09L75.83-18.09 75.83-20.83 79.3-20.83 79.3 0 75.83 0 75.83-2.74Q74.44-1.35 72.55-0.54 70.65 0.28 68.5 0.28ZM68.99-3.13L68.99-3.13Q70.97-3.13 72.58-4.11 74.2-5.1 75.15-6.75 76.11-8.4 76.11-10.42L76.11-10.42Q76.11-12.43 75.15-14.08 74.2-15.73 72.58-16.72 70.97-17.71 68.99-17.71L68.99-17.71Q67.01-17.71 65.39-16.72 63.78-15.73 62.82-14.08 61.87-12.43 61.87-10.42L61.87-10.42Q61.87-8.4 62.82-6.75 63.78-5.1 65.39-4.11 67.01-3.13 68.99-3.13ZM92.15 0L88.4 0 88.4-17.71 83.67-17.71 83.67-20.83 88.5-20.83 88.5-27.78 92.04-27.78 92.04-20.83 97.21-20.83 97.21-17.71 92.15-17.71 92.15 0ZM109.71-8.75L99.3-8.75 99.3-12.08 109.71-12.08 109.71-8.75ZM122.52 10.83L122.52 10.83Q120.13 10.83 118.16 10.14 116.2 9.44 114.68 8.23L114.68 8.23 115.72 3.99Q116.76 5.49 118.49 6.42 120.23 7.36 122.49 7.36L122.49 7.36Q125.99 7.36 128.16 5.24 130.33 3.13 130.33-0.21L130.33-0.21 130.33-2.74Q128.95-1.35 127.05-0.54 125.16 0.28 123.01 0.28L123.01 0.28Q120.16 0.28 117.8-1.16 115.44-2.6 114.03-5.03 112.63-7.47 112.63-10.42L112.63-10.42Q112.63-13.37 114.03-15.8 115.44-18.23 117.8-19.67 120.16-21.11 123.01-21.11L123.01-21.11Q125.16-21.11 127.05-20.31 128.95-19.51 130.33-18.09L130.33-18.09 130.33-20.83 133.81-20.83 133.81 0Q133.81 3.4 132.23 5.83 130.65 8.26 128.08 9.55 125.51 10.83 122.52 10.83ZM123.49-3.13L123.49-3.13Q125.47-3.13 127.09-4.11 128.7-5.1 129.66-6.75 130.61-8.4 130.61-10.42L130.61-10.42Q130.61-12.43 129.66-14.08 128.7-15.73 127.09-16.72 125.47-17.71 123.49-17.71L123.49-17.71Q121.52-17.71 119.9-16.72 118.29-15.73 117.33-14.08 116.38-12.43 116.38-10.42L116.38-10.42Q116.38-8.4 117.33-6.75 118.29-5.1 119.9-4.11 121.52-3.13 123.49-3.13ZM149.99 0.42L149.99 0.42Q146.96 0.42 144.46-1.04 141.96-2.5 140.49-4.97 139.01-7.43 139.01-10.42L139.01-10.42Q139.01-13.44 140.49-15.89 141.96-18.33 144.46-19.79 146.96-21.25 149.99-21.25L149.99-21.25Q153.04-21.25 155.52-19.79 158.01-18.33 159.48-15.89 160.96-13.44 160.96-10.42L160.96-10.42Q160.96-7.43 159.48-4.97 158.01-2.5 155.52-1.04 153.04 0.42 149.99 0.42ZM149.99-3.13L149.99-3.13Q152-3.13 153.63-4.11 155.26-5.1 156.24-6.75 157.21-8.4 157.21-10.42L157.21-10.42Q157.21-12.43 156.24-14.08 155.26-15.73 153.63-16.72 152-17.71 149.99-17.71L149.99-17.71Q147.97-17.71 146.34-16.72 144.71-15.73 143.74-14.08 142.76-12.43 142.76-10.42L142.76-10.42Q142.76-8.4 143.74-6.75 144.71-5.1 146.34-4.11 147.97-3.13 149.99-3.13Z" fill="#b19cd9" data-fill-palette-color="primary"></path></g></svg></g></svg></g></svg></g></svg></g><g transform="matrix(1,0,0,1,457.3448597374926,14.567513286713279)"><svg viewBox="0 0 93.76479438430597 81.3581874125874" height="81.3581874125874" width="93.76479438430597"><g><svg xmlns="http://www.w3.org/2000/svg" xmlns:xlink="http://www.w3.org/1999/xlink" version="1.1" x="0" y="0" viewBox="0.109 7.869 99.82900000000001 86.62000001751835" enable-background="new 0 0 100 100" xml:space="preserve" height="81.3581874125874" width="93.76479438430597" class="icon-icon-0" data-fill-palette-color="accent" id="icon-0"><g fill="#b19cd9" data-fill-palette-color="accent"><path d="M89.633 72.435H79L67.251 84.184 56.062 72.435H10.414V18.173H89.633zM10.414 7.869C4.722 7.869 0.109 12.483 0.109 18.174V72.435C0.109 78.125 4.722 82.741 10.414 82.741H51.644L59.789 91.293A10.3 10.3 0 0 0 67.124 94.489H67.251A10.3 10.3 0 0 0 74.535 91.472L83.268 82.741H89.631C95.32 82.741 99.936 78.126 99.936 72.435L99.938 18.174C99.938 12.483 95.326 7.869 89.633 7.869z" fill="#b19cd9" data-fill-palette-color="accent"></path><g fill="#b19cd9" data-fill-palette-color="accent"><path fill="#b19cd9" d="M38.547 40.832H38.573C41.552 40.752 43.632 38.768 43.632 36.007 43.632 33.174 41.493 31.118 38.548 31.118 35.686 31.118 33.527 33.192 33.527 35.943 33.526 38.775 35.638 40.832 38.547 40.832" data-fill-palette-color="accent"></path><path fill="#b19cd9" d="M61.435 40.832H61.463C64.441 40.752 66.519 38.768 66.519 36.007 66.519 33.174 64.382 31.118 61.436 31.118 58.575 31.118 56.415 33.192 56.415 35.943 56.414 38.775 58.526 40.832 61.435 40.832" data-fill-palette-color="accent"></path><path fill="#b19cd9" d="M79.31 41.996C78.05 40.833 75.905 40.919 74.741 42.179A33.73 33.73 0 0 1 48.651 52.997C39.683 52.636 31.393 48.801 25.305 42.198 24.143 40.94 21.999 40.851 20.738 42.014A3.236 3.236 0 0 0 20.553 46.581C27.807 54.45 37.694 59.023 48.388 59.459 48.93 59.481 49.467 59.491 50.005 59.491 50.585 59.491 51.162 59.478 51.741 59.455 62.396 59 72.25 54.42 79.494 46.561A3.22 3.22 0 0 0 80.348 44.239 3.22 3.22 0 0 0 79.31 41.996" data-fill-palette-color="accent"></path></g></g></svg></g></svg></g></svg></g><defs></defs></svg><rect width="395.52" height="79.29869431408976" fill="none" stroke="none" visibility="hidden"></rect></g></svg></g></svg>